<svg xmlns="http://www.w3.org/2000/svg" viewBox="0 0 1200 720" width="1200" height="720" role="img" aria-label="LIT Contact Discovery — verified buyer contacts for freight sales">
  <defs>
    <linearGradient id="bg" x1="0" x2="0" y1="0" y2="1">
      <stop offset="0%" stop-color="#F8FAFC"/>
      <stop offset="100%" stop-color="#FFFFFF"/>
    </linearGradient>
    <linearGradient id="accent" x1="0" x2="1" y1="0" y2="0">
      <stop offset="0%" stop-color="#2563EB"/>
      <stop offset="100%" stop-color="#7C3AED"/>
    </linearGradient>
  </defs>
  <rect width="1200" height="720" fill="url(#bg)"/>
  <rect x="40" y="40" width="1120" height="640" rx="20" fill="#FFFFFF" stroke="#E2E8F0" stroke-width="1.5"/>

  <!-- Header strip -->
  <rect x="40" y="40" width="1120" height="84" rx="20" fill="#0F172A"/>
  <rect x="40" y="104" width="1120" height="20" fill="#0F172A"/>
  <text x="80" y="76" fill="#FFFFFF" font-family="Georgia,serif" font-weight="700" font-size="20">Contact discovery · NorthBay Furniture</text>
  <text x="80" y="100" fill="#94A3B8" font-family="Arial,sans-serif" font-size="13">12 logistics &amp; supply-chain decision makers · 9 verified emails · 7 LinkedIn</text>
  <rect x="980" y="64" width="160" height="32" rx="8" fill="#3B82F6"/>
  <text x="1060" y="84" text-anchor="middle" fill="#FFFFFF" font-family="Arial,sans-serif" font-weight="700" font-size="12">Find more contacts</text>

  <!-- Filter chips -->
  <g font-family="Arial,sans-serif" font-size="12">
    <rect x="80" y="156" width="120" height="32" rx="16" fill="#EFF6FF" stroke="#3B82F6"/>
    <text x="140" y="176" text-anchor="middle" fill="#1D4ED8" font-weight="700">Logistics · 6</text>
    <rect x="212" y="156" width="160" height="32" rx="16" fill="#F8FAFC" stroke="#CBD5E1"/>
    <text x="292" y="176" text-anchor="middle" fill="#475569">Supply Chain · 4</text>
    <rect x="384" y="156" width="120" height="32" rx="16" fill="#F8FAFC" stroke="#CBD5E1"/>
    <text x="444" y="176" text-anchor="middle" fill="#475569">C-suite · 2</text>
    <rect x="516" y="156" width="140" height="32" rx="16" fill="#F8FAFC" stroke="#CBD5E1"/>
    <text x="586" y="176" text-anchor="middle" fill="#475569">Procurement · 0</text>
  </g>

  <!-- Contact rows -->
  <g font-family="Arial,sans-serif">
    <!-- Row 1 -->
    <rect x="80" y="220" width="1040" height="80" rx="12" fill="#FFFFFF" stroke="#E2E8F0"/>
    <circle cx="120" cy="260" r="22" fill="#7C3AED"/>
    <text x="120" y="267" text-anchor="middle" fill="#FFF" font-weight="700" font-size="14">LP</text>
    <text x="160" y="252" fill="#0F172A" font-size="15" font-weight="700">Linh Pham</text>
    <text x="160" y="272" fill="#64748B" font-size="12">VP Logistics · NorthBay Furniture · Atlanta, GA</text>
    <rect x="700" y="240" width="100" height="24" rx="12" fill="#DCFCE7"/>
    <text x="750" y="256" text-anchor="middle" fill="#15803D" font-size="11" font-weight="700">✓ verified</text>
    <text x="820" y="256" fill="#1D4ED8" font-size="12">l.pham@northbay…</text>
    <text x="820" y="276" fill="#64748B" font-size="11">linkedin.com/in/lpham</text>
    <rect x="1010" y="240" width="80" height="32" rx="8" fill="#3B82F6"/>
    <text x="1050" y="260" text-anchor="middle" fill="#FFF" font-size="12" font-weight="700">Add</text>

    <!-- Row 2 -->
    <rect x="80" y="312" width="1040" height="80" rx="12" fill="#FFFFFF" stroke="#E2E8F0"/>
    <circle cx="120" cy="352" r="22" fill="#0EA5E9"/>
    <text x="120" y="359" text-anchor="middle" fill="#FFF" font-weight="700" font-size="14">JT</text>
    <text x="160" y="344" fill="#0F172A" font-size="15" font-weight="700">Jordan Tran</text>
    <text x="160" y="364" fill="#64748B" font-size="12">Director, Supply Chain · NorthBay Furniture</text>
    <rect x="700" y="332" width="100" height="24" rx="12" fill="#DCFCE7"/>
    <text x="750" y="348" text-anchor="middle" fill="#15803D" font-size="11" font-weight="700">✓ verified</text>
    <text x="820" y="348" fill="#1D4ED8" font-size="12">j.tran@northbay…</text>
    <text x="820" y="368" fill="#64748B" font-size="11">linkedin.com/in/jtran</text>
    <rect x="1010" y="332" width="80" height="32" rx="8" fill="#3B82F6"/>
    <text x="1050" y="352" text-anchor="middle" fill="#FFF" font-size="12" font-weight="700">Add</text>

    <!-- Row 3 -->
    <rect x="80" y="404" width="1040" height="80" rx="12" fill="#FFFFFF" stroke="#E2E8F0"/>
    <circle cx="120" cy="444" r="22" fill="#F59E0B"/>
    <text x="120" y="451" text-anchor="middle" fill="#FFF" font-weight="700" font-size="14">RC</text>
    <text x="160" y="436" fill="#0F172A" font-size="15" font-weight="700">Robert Chen</text>
    <text x="160" y="456" fill="#64748B" font-size="12">Senior Logistics Manager · NorthBay Furniture</text>
    <rect x="700" y="424" width="100" height="24" rx="12" fill="#FEF3C7"/>
    <text x="750" y="440" text-anchor="middle" fill="#92400E" font-size="11" font-weight="700">pattern match</text>
    <text x="820" y="440" fill="#1D4ED8" font-size="12">r.chen@northbay…</text>
    <text x="820" y="460" fill="#64748B" font-size="11">linkedin.com/in/rchen</text>
    <rect x="1010" y="424" width="80" height="32" rx="8" fill="#3B82F6"/>
    <text x="1050" y="444" text-anchor="middle" fill="#FFF" font-size="12" font-weight="700">Add</text>

    <!-- Row 4 -->
    <rect x="80" y="496" width="1040" height="80" rx="12" fill="#FFFFFF" stroke="#E2E8F0"/>
    <circle cx="120" cy="536" r="22" fill="#16A34A"/>
    <text x="120" y="543" text-anchor="middle" fill="#FFF" font-weight="700" font-size="14">SM</text>
    <text x="160" y="528" fill="#0F172A" font-size="15" font-weight="700">Sarah Martinez</text>
    <text x="160" y="548" fill="#64748B" font-size="12">Head of Procurement · NorthBay Furniture</text>
    <rect x="700" y="516" width="100" height="24" rx="12" fill="#DCFCE7"/>
    <text x="750" y="532" text-anchor="middle" fill="#15803D" font-size="11" font-weight="700">✓ verified</text>
    <text x="820" y="532" fill="#1D4ED8" font-size="12">s.martinez@northbay…</text>
    <text x="820" y="552" fill="#64748B" font-size="11">linkedin.com/in/smartinez</text>
    <rect x="1010" y="516" width="80" height="32" rx="8" fill="#3B82F6"/>
    <text x="1050" y="536" text-anchor="middle" fill="#FFF" font-size="12" font-weight="700">Add</text>
  </g>

  <text x="80" y="612" fill="#64748B" font-family="Arial,sans-serif" font-size="12">+ 8 more contacts. Click "Find more" to surface adjacent decision makers via lane &amp; supplier signal.</text>

  <!-- Footer brand badge -->
  <g>
    <rect x="80" y="640" width="200" height="32" rx="8" fill="url(#accent)"/>
    <text x="180" y="661" text-anchor="middle" fill="#FFFFFF" font-family="Georgia,serif" font-size="13" font-weight="700">LIT · Contact Discovery</text>
  </g>
</svg>
