<svg xmlns="http://www.w3.org/2000/svg" viewBox="0 0 600 220" width="600" height="220" role="img" aria-label="LIT weekly brief">
<defs><linearGradient id="bgn" x1="0" x2="0" y1="0" y2="1"><stop offset="0%" stop-color="#E0F2FE"/><stop offset="100%" stop-color="#FFFFFF"/></linearGradient></defs>
<rect x="0" y="0" width="600" height="220" rx="14" fill="url(#bgn)"/>
<g transform="translate(80,38)">
  <rect x="0" y="0" width="280" height="160" rx="12" fill="#FFFFFF" stroke="#E2E8F0" stroke-width="1.5"/>
  <rect x="0" y="0" width="280" height="40" rx="12" fill="#0EA5E9"/>
  <text x="20" y="26" fill="#FFFFFF" font-family="Georgia,serif" font-size="14" font-weight="700">Top 100 active shippers</text>
  <rect x="20" y="58" width="180" height="10" rx="2" fill="#0F172A"/>
  <rect x="20" y="78" width="240" height="6" rx="2" fill="#94A3B8"/>
  <rect x="20" y="92" width="220" height="6" rx="2" fill="#94A3B8"/>
  <rect x="20" y="118" width="80" height="20" rx="4" fill="#0EA5E9"/>
  <text x="60" y="132" text-anchor="middle" fill="#FFFFFF" font-family="Georgia,serif" font-size="10" font-weight="700">Download</text>
</g>
<g transform="translate(380,50)">
  <rect x="0" y="0" width="140" height="100" rx="8" fill="#FFFFFF" stroke="#E2E8F0" stroke-width="1.5"/>
  <rect x="12" y="12" width="40" height="6" rx="2" fill="#0EA5E9"/>
  <rect x="12" y="26" width="100" height="10" rx="2" fill="#0F172A"/>
  <rect x="12" y="46" width="80" height="6" rx="2" fill="#94A3B8"/>
  <rect x="12" y="58" width="100" height="6" rx="2" fill="#94A3B8"/>
  <rect x="12" y="70" width="60" height="6" rx="2" fill="#94A3B8"/>
</g>
<text x="568" y="200" text-anchor="end" fill="#475569" font-family="Georgia,serif" font-size="11" font-weight="600">LIT · refreshed weekly</text>
</svg>
